# xmcd CD database file generated by OrangeCD 5.2
#
# Track frame offsets:
#	150
#	20927
#	40721
#	62018
#	84585
#	102208
#	123591
#	144319
#	164082
#	187069
#
# Disc length: 2737 seconds
#
# Revision: 0
# Processed by: cddbd v1.5.1PL0 Copyright (c) Steve Scherf et al.
# Submitted via: OrangeCD 5.2
#
DISCID=8d0aaf0a
DTITLE=Barbara Carr - Footprints on the Ceiling
DYEAR=1997
DGENRE=Blues
TTITLE0=Good Looks Can Get Him But It Takes Good Lovin' To Keep Him Home
TTITLE1=Footprints On The Ceiling
TTITLE2=God Blessed Our Love
TTITLE3=If You Can't Cut The Mustard
TTITLE4=I Just Wanna Make Love To You
TTITLE5=The Bo Hawk Grind
TTITLE6=The Right Kind Of Love
TTITLE7=Anybody's Man Tonight
TTITLE8=Make Me Feel It Like You Feel It Too
TTITLE9=We're Gonna Boggle
EXTD=
EXTT0=
EXTT1=
EXTT2=
EXTT3=
EXTT4=
EXTT5=
EXTT6=
EXTT7=
EXTT8=
EXTT9=
PLAYORDER=
